<mxfile host="Electron" agent="Mozilla/5.0 (Macintosh; Intel Mac OS X 10_15_7) AppleWebKit/537.36 (KHTML, like Gecko) draw.io/24.7.17 Chrome/128.0.6613.36 Electron/32.0.1 Safari/537.36" version="24.7.17">
  <diagram name="Page-1" id="J7XHhKZu9J1D71lAG_Xx">
    <mxGraphModel dx="1034" dy="523" grid="1" gridSize="10" guides="1" tooltips="1" connect="1" arrows="1" fold="1" page="1" pageScale="1" pageWidth="1100" pageHeight="850" math="0" shadow="0">
      <root>
        <mxCell id="0" />
        <mxCell id="1" parent="0" />
        <mxCell id="H2p6WBuu2haHPVCVow4f-1" value="BTE&lt;div&gt;module&lt;/div&gt;" style="whiteSpace=wrap;html=1;aspect=fixed;" parent="1" vertex="1">
          <mxGeometry x="200" y="120" width="80" height="80" as="geometry" />
        </mxCell>
        <mxCell id="H2p6WBuu2haHPVCVow4f-2" value="WiFi&lt;div&gt;module&lt;/div&gt;" style="whiteSpace=wrap;html=1;aspect=fixed;" parent="1" vertex="1">
          <mxGeometry x="200" y="240" width="80" height="80" as="geometry" />
        </mxCell>
        <mxCell id="H2p6WBuu2haHPVCVow4f-3" value="LED&lt;div&gt;module&lt;/div&gt;" style="whiteSpace=wrap;html=1;aspect=fixed;" parent="1" vertex="1">
          <mxGeometry x="200" y="360" width="80" height="80" as="geometry" />
        </mxCell>
        <mxCell id="H2p6WBuu2haHPVCVow4f-4" value="LED" style="rounded=0;whiteSpace=wrap;html=1;" parent="1" vertex="1">
          <mxGeometry x="40" y="380" width="80" height="40" as="geometry" />
        </mxCell>
        <mxCell id="H2p6WBuu2haHPVCVow4f-5" value="" style="endArrow=classic;html=1;rounded=0;exitX=0;exitY=0.5;exitDx=0;exitDy=0;entryX=1;entryY=0.5;entryDx=0;entryDy=0;" parent="1" source="H2p6WBuu2haHPVCVow4f-3" target="H2p6WBuu2haHPVCVow4f-4" edge="1">
          <mxGeometry width="50" height="50" relative="1" as="geometry">
            <mxPoint x="160" y="580" as="sourcePoint" />
            <mxPoint x="210" y="530" as="targetPoint" />
          </mxGeometry>
        </mxCell>
        <mxCell id="H2p6WBuu2haHPVCVow4f-6" value="EEPROM" style="rounded=0;whiteSpace=wrap;html=1;" parent="1" vertex="1">
          <mxGeometry x="640" y="560" width="80" height="40" as="geometry" />
        </mxCell>
        <mxCell id="H2p6WBuu2haHPVCVow4f-7" value="scheduling&lt;div&gt;module&lt;/div&gt;" style="whiteSpace=wrap;html=1;aspect=fixed;" parent="1" vertex="1">
          <mxGeometry x="200" y="480" width="80" height="80" as="geometry" />
        </mxCell>
        <mxCell id="H2p6WBuu2haHPVCVow4f-8" value="EEPROM&lt;div&gt;library&lt;/div&gt;" style="shape=document;whiteSpace=wrap;html=1;boundedLbl=1;" parent="1" vertex="1">
          <mxGeometry x="480" y="560" width="80" height="50" as="geometry" />
        </mxCell>
        <mxCell id="H2p6WBuu2haHPVCVow4f-9" value="" style="endArrow=classic;startArrow=classic;html=1;rounded=0;exitX=1;exitY=0.25;exitDx=0;exitDy=0;entryX=0;entryY=0.25;entryDx=0;entryDy=0;" parent="1" source="H2p6WBuu2haHPVCVow4f-8" target="H2p6WBuu2haHPVCVow4f-6" edge="1">
          <mxGeometry width="50" height="50" relative="1" as="geometry">
            <mxPoint x="610" y="720" as="sourcePoint" />
            <mxPoint x="660" y="670" as="targetPoint" />
          </mxGeometry>
        </mxCell>
        <mxCell id="H2p6WBuu2haHPVCVow4f-10" value="" style="endArrow=classic;html=1;rounded=0;entryX=1;entryY=0.5;entryDx=0;entryDy=0;" parent="1" source="H2p6WBuu2haHPVCVow4f-8" target="H2p6WBuu2haHPVCVow4f-7" edge="1">
          <mxGeometry width="50" height="50" relative="1" as="geometry">
            <mxPoint x="380" y="550" as="sourcePoint" />
            <mxPoint x="430" y="500" as="targetPoint" />
          </mxGeometry>
        </mxCell>
        <mxCell id="H2p6WBuu2haHPVCVow4f-11" value="zone&lt;div&gt;duration&lt;/div&gt;" style="edgeLabel;html=1;align=center;verticalAlign=middle;resizable=0;points=[];" parent="H2p6WBuu2haHPVCVow4f-10" vertex="1" connectable="0">
          <mxGeometry x="0.0163" y="1" relative="1" as="geometry">
            <mxPoint as="offset" />
          </mxGeometry>
        </mxCell>
      </root>
    </mxGraphModel>
  </diagram>
</mxfile>
